<mxfile host="app.diagrams.net" modified="2022-10-05T03:11:14.001Z" agent="5.0 (Windows NT 10.0; Win64; x64) AppleWebKit/537.36 (KHTML, like Gecko) Chrome/105.0.0.0 Safari/537.36" etag="UmzOxKH-DIsLsYdCbQAy" version="20.4.0" type="github">
  <diagram name="Page-1" id="c7558073-3199-34d8-9f00-42111426c3f3">
    <mxGraphModel dx="868" dy="450" grid="1" gridSize="10" guides="1" tooltips="1" connect="1" arrows="1" fold="1" page="1" pageScale="1" pageWidth="826" pageHeight="1169" background="none" math="0" shadow="0">
      <root>
        <mxCell id="0" />
        <mxCell id="1" parent="0" />
        <mxCell id="Q_svozjam6xV6SATI1le-110" value="" style="edgeStyle=orthogonalEdgeStyle;rounded=0;orthogonalLoop=1;jettySize=auto;html=1;" edge="1" parent="1" source="Q_svozjam6xV6SATI1le-98" target="Q_svozjam6xV6SATI1le-109">
          <mxGeometry relative="1" as="geometry" />
        </mxCell>
        <mxCell id="Q_svozjam6xV6SATI1le-98" value="邮件服务处理" style="rounded=0;whiteSpace=wrap;html=1;fillColor=#647687;strokeColor=#314354;fontColor=#ffffff;" vertex="1" parent="1">
          <mxGeometry x="399" y="310" width="120" height="60" as="geometry" />
        </mxCell>
        <mxCell id="Q_svozjam6xV6SATI1le-116" value="" style="edgeStyle=orthogonalEdgeStyle;rounded=0;orthogonalLoop=1;jettySize=auto;html=1;" edge="1" parent="1" source="Q_svozjam6xV6SATI1le-109" target="Q_svozjam6xV6SATI1le-115">
          <mxGeometry relative="1" as="geometry" />
        </mxCell>
        <mxCell id="Q_svozjam6xV6SATI1le-126" style="edgeStyle=orthogonalEdgeStyle;rounded=0;orthogonalLoop=1;jettySize=auto;html=1;exitX=0;exitY=0.5;exitDx=0;exitDy=0;entryX=0.5;entryY=0;entryDx=0;entryDy=0;" edge="1" parent="1" source="Q_svozjam6xV6SATI1le-109" target="Q_svozjam6xV6SATI1le-111">
          <mxGeometry relative="1" as="geometry" />
        </mxCell>
        <mxCell id="Q_svozjam6xV6SATI1le-109" value="分类型处理" style="rhombus;whiteSpace=wrap;html=1;fillColor=#cce5ff;strokeColor=#36393d;rounded=0;" vertex="1" parent="1">
          <mxGeometry x="409" y="416" width="100" height="60" as="geometry" />
        </mxCell>
        <mxCell id="Q_svozjam6xV6SATI1le-128" value="" style="edgeStyle=orthogonalEdgeStyle;rounded=0;orthogonalLoop=1;jettySize=auto;html=1;" edge="1" parent="1" source="Q_svozjam6xV6SATI1le-111" target="Q_svozjam6xV6SATI1le-127">
          <mxGeometry relative="1" as="geometry" />
        </mxCell>
        <mxCell id="Q_svozjam6xV6SATI1le-111" value="验证码类型" style="whiteSpace=wrap;html=1;fillColor=#f9f7ed;strokeColor=#36393d;rounded=0;" vertex="1" parent="1">
          <mxGeometry x="220" y="525" width="120" height="60" as="geometry" />
        </mxCell>
        <mxCell id="Q_svozjam6xV6SATI1le-115" value="消息提醒类型" style="whiteSpace=wrap;html=1;fillColor=#f9f7ed;strokeColor=#36393d;rounded=0;" vertex="1" parent="1">
          <mxGeometry x="580" y="525" width="120" height="60" as="geometry" />
        </mxCell>
        <mxCell id="Q_svozjam6xV6SATI1le-139" value="缓存验证码" style="edgeStyle=orthogonalEdgeStyle;rounded=0;orthogonalLoop=1;jettySize=auto;html=1;" edge="1" parent="1" source="Q_svozjam6xV6SATI1le-127" target="Q_svozjam6xV6SATI1le-138">
          <mxGeometry relative="1" as="geometry" />
        </mxCell>
        <mxCell id="Q_svozjam6xV6SATI1le-141" value="" style="edgeStyle=orthogonalEdgeStyle;rounded=0;orthogonalLoop=1;jettySize=auto;html=1;" edge="1" parent="1" source="Q_svozjam6xV6SATI1le-127" target="Q_svozjam6xV6SATI1le-140">
          <mxGeometry relative="1" as="geometry" />
        </mxCell>
        <mxCell id="Q_svozjam6xV6SATI1le-127" value="生成验证码" style="whiteSpace=wrap;html=1;fillColor=#f9f7ed;strokeColor=#36393d;rounded=0;" vertex="1" parent="1">
          <mxGeometry x="220" y="665" width="120" height="60" as="geometry" />
        </mxCell>
        <mxCell id="Q_svozjam6xV6SATI1le-138" value="redis&amp;nbsp;服务" style="whiteSpace=wrap;html=1;fillColor=#647687;strokeColor=#314354;rounded=0;fontColor=#ffffff;" vertex="1" parent="1">
          <mxGeometry y="665" width="120" height="60" as="geometry" />
        </mxCell>
        <mxCell id="Q_svozjam6xV6SATI1le-140" value="验证码邮件发送到用户邮箱" style="whiteSpace=wrap;html=1;rounded=0;" vertex="1" parent="1">
          <mxGeometry x="220" y="805" width="120" height="60" as="geometry" />
        </mxCell>
      </root>
    </mxGraphModel>
  </diagram>
</mxfile>
